<?xml version="1.0" standalone="no"?>
<!DOCTYPE svg PUBLIC "-//W3C//DTD SVG 20010904//EN"
 "http://www.w3.org/TR/2001/REC-SVG-20010904/DTD/svg10.dtd">
<svg version="1.0" xmlns="http://www.w3.org/2000/svg"
 width="260.000000pt" height="260.000000pt" viewBox="0 0 260.000000 260.000000"
 preserveAspectRatio="xMidYMid meet">
<metadata>
Created by potrace 1.14, written by Peter Selinger 2001-2017
</metadata>
<g transform="translate(0.000000,260.000000) scale(0.100000,-0.100000)"
fill="#000000" stroke="none">
<path d="M1919 2473 c-1 -5 -1 -11 -1 -15 1 -3 -5 -9 -13 -12 -9 -3 -12 0 -8
10 7 18 -26 7 -45 -15 -10 -12 -15 -13 -18 -3 -3 6 -10 12 -15 12 -6 0 -8 -4
-5 -8 2 -4 -4 -13 -14 -20 -12 -7 -21 -8 -25 -2 -3 6 -12 10 -18 10 -7 0 -6
-4 3 -11 12 -9 11 -10 -7 -6 -24 5 -32 -7 -10 -17 6 -3 1 -3 -12 0 -17 5 -21
3 -16 -6 5 -8 4 -11 -3 -6 -5 3 -13 0 -16 -6 -3 -7 -3 -2 0 11 6 21 4 22 -9
10 -8 -8 -13 -17 -11 -21 2 -4 -1 -10 -7 -14 -7 -4 -9 -3 -5 4 3 6 2 13 -4 17
-5 3 -10 -1 -10 -10 0 -9 -5 -13 -10 -10 -6 3 -13 -1 -16 -9 -3 -9 -10 -13
-15 -10 -5 3 -6 10 -3 16 4 7 2 8 -5 4 -6 -4 -9 -11 -6 -16 5 -8 -24 -25 -39
-21 -5 1 -6 -5 -3 -13 4 -9 3 -15 -1 -15 -4 1 -16 1 -27 0 -14 -1 -16 -4 -7
-9 9 -6 7 -13 -10 -28 -13 -11 -18 -12 -10 -3 9 13 9 16 -3 16 -8 0 -13 -2
-10 -5 8 -8 -16 -43 -26 -37 -5 4 -9 -1 -9 -9 0 -8 -4 -18 -10 -21 -6 -4 -7 1
-3 12 3 10 2 15 -2 10 -5 -4 -9 -17 -10 -30 -1 -12 -8 -22 -15 -22 -7 0 -15
-6 -18 -14 -3 -9 0 -11 8 -6 8 5 11 4 6 -3 -3 -6 -15 -9 -26 -7 -12 2 -18 0
-15 -5 3 -5 1 -12 -5 -15 -7 -5 -8 -11 -1 -19 7 -8 6 -17 -1 -26 -8 -12 -9
-12 -4 3 7 21 -1 22 -21 1 -15 -15 -17 -14 -27 4 -7 13 -19 18 -36 16 -14 -1
-19 0 -12 2 6 3 10 10 7 15 -4 5 2 6 12 2 15 -6 16 -5 3 9 -8 9 -18 14 -22 11
-15 -8 -46 17 -52 42 -4 14 -11 25 -17 25 -6 0 -7 6 -3 13 6 10 4 10 -7 0 -18
-17 -32 -16 -26 1 4 11 1 13 -10 9 -12 -5 -14 -3 -8 8 7 11 6 12 -6 2 -10 -8
-19 -9 -29 -1 -13 8 -12 9 2 4 11 -3 15 -1 12 8 -3 8 -14 12 -25 9 -13 -4 -19
0 -19 10 0 15 -16 17 -36 4 -16 -10 -26 4 -13 20 8 9 8 13 1 13 -6 0 -14 -5
-18 -11 -5 -8 -9 -8 -14 1 -4 7 -26 13 -48 13 -32 2 -38 -1 -30 -11 8 -9 7
-11 -6 -6 -9 3 -16 12 -16 20 0 15 -12 19 -24 7 -10 -11 -36 -12 -36 -2 0 5
-5 9 -11 9 -5 0 -8 -4 -5 -9 11 -16 -42 -18 -60 -2 -9 9 -14 10 -10 4 12 -22
-3 -34 -26 -22 -18 10 -20 9 -14 -7 6 -18 5 -18 -9 0 -9 12 -15 14 -15 7 0 -7
-6 -11 -12 -8 -7 2 -18 -3 -24 -11 -9 -12 -13 -12 -19 -2 -6 9 -4 11 5 5 9 -5
11 -4 6 4 -6 9 -11 9 -22 0 -8 -6 -14 -8 -15 -3 0 5 -4 -1 -9 -13 -7 -17 -15
-21 -34 -17 -21 3 -24 1 -19 -13 5 -15 3 -14 -10 2 -11 13 -16 15 -17 6 0 -8
-6 -11 -16 -7 -9 4 -13 2 -8 -5 4 -6 0 -15 -7 -20 -23 -14 -32 -10 -18 9 12
15 12 16 -2 5 -9 -7 -19 -9 -24 -5 -4 4 -2 -4 5 -18 12 -23 12 -24 -4 -11 -16
13 -17 13 -14 -5 2 -11 -2 -18 -9 -17 -7 2 -13 -2 -13 -7 0 -6 -5 -10 -11 -10
-5 0 -7 5 -3 12 4 7 3 8 -4 4 -7 -4 -12 -14 -12 -22 0 -8 -7 -14 -15 -14 -8 0
-15 -9 -15 -19 0 -10 -7 -21 -15 -24 -8 -4 -12 -15 -10 -26 3 -15 -1 -19 -16
-16 -11 2 -17 0 -14 -5 3 -4 -1 -11 -7 -14 -7 -3 -2 -3 12 0 21 4 22 3 7 -6
-9 -6 -15 -15 -12 -21 4 -5 1 -9 -4 -9 -6 0 -11 -5 -11 -11 0 -5 5 -7 12 -3 7
4 8 3 4 -5 -4 -6 -12 -9 -17 -6 -9 6 -13 -8 -10 -34 2 -8 -3 -10 -11 -6 -7 3
-4 -1 6 -9 19 -16 19 -16 -5 -16 l-24 -1 25 -15 c17 -10 19 -13 5 -9 -11 3
-16 3 -12 -1 4 -4 2 -13 -4 -20 -7 -8 -6 -14 2 -20 8 -5 10 -3 4 7 -5 8 -4 11
0 6 5 -4 10 -18 11 -30 2 -12 0 -16 -2 -9 -8 17 -25 15 -18 -3 4 -9 1 -15 -7
-15 -8 0 -5 -6 7 -16 10 -8 14 -13 8 -10 -6 3 -11 -2 -11 -10 0 -9 6 -13 16
-9 9 3 5 -4 -9 -15 -20 -16 -21 -19 -5 -13 18 6 19 5 5 -12 -14 -17 -13 -17
10 -11 l25 7 -25 -15 c-14 -9 -19 -15 -12 -16 6 0 12 -5 12 -11 0 -5 -4 -7
-10 -4 -5 3 -10 1 -10 -4 0 -6 7 -11 15 -11 8 0 15 -5 15 -11 0 -5 -4 -8 -9
-4 -5 3 -13 0 -17 -6 -4 -7 -3 -9 3 -6 6 4 16 0 23 -8 11 -13 10 -14 -6 -9
-16 6 -17 5 -7 -7 19 -19 16 -34 -4 -18 -15 13 -15 12 -2 -8 8 -13 21 -23 29
-24 10 0 8 -3 -5 -9 -12 -5 -15 -9 -6 -9 12 -1 12 -4 3 -13 -16 -16 -15 -33 1
-19 8 6 16 8 20 5 9 -9 -4 -35 -14 -28 -5 3 -6 -2 -3 -10 3 -8 13 -13 22 -10
9 3 6 -2 -8 -11 l-25 -16 30 5 c17 3 24 3 17 0 -6 -3 -9 -11 -6 -16 4 -6 3 -8
-3 -5 -5 3 -10 0 -10 -8 0 -8 4 -12 9 -9 5 4 9 0 7 -7 -3 -26 1 -39 12 -39 8
0 7 6 -2 18 -11 14 -11 15 1 5 15 -14 23 -46 9 -37 -5 3 -9 -2 -9 -10 0 -8 5
-18 12 -22 7 -5 8 -3 3 6 -5 9 -4 11 4 6 6 -4 9 -12 6 -17 -4 -5 -2 -9 3 -9
11 0 9 -46 -2 -57 -5 -4 -6 -3 -3 3 4 7 0 14 -8 17 -9 4 -12 1 -9 -7 3 -7 -2
-19 -11 -26 -11 -9 -15 -9 -15 -1 0 7 -5 9 -12 5 -7 -4 -8 -3 -4 4 4 6 14 8
24 5 9 -3 14 -3 11 1 -13 15 -49 15 -49 0 0 -8 -4 -12 -10 -9 -18 11 -51 14
-45 4 4 -5 11 -6 17 -3 7 4 8 2 4 -4 -9 -15 -46 2 -46 21 0 7 -4 6 -10 -3 -11
-17 -32 -20 -42 -5 -4 5 -8 1 -8 -10 0 -17 -2 -18 -11 -5 -9 12 -10 11 -6 -8
3 -12 1 -20 -4 -16 -5 3 -9 11 -9 19 0 8 -9 13 -20 12 -11 -1 -20 -5 -20 -10
0 -5 -7 -6 -16 -3 -12 5 -15 2 -10 -11 5 -16 5 -16 -8 0 -14 18 -14 17 -12
-12 1 -17 6 -34 11 -38 4 -4 5 -2 1 5 -4 6 -3 12 2 12 6 0 13 -7 16 -16 5 -12
10 -14 20 -5 7 6 17 7 21 3 5 -4 5 2 2 13 -7 20 -7 20 8 1 11 -15 15 -16 16
-5 0 8 4 6 9 -6 7 -16 9 -17 9 -3 1 9 5 20 11 23 6 4 7 -1 4 -12 -5 -16 -4
-16 10 1 12 15 16 16 16 5 0 -12 2 -12 10 1 9 14 14 7 11 -13 -1 -5 3 -6 9 -2
6 3 8 12 4 18 -3 7 2 3 11 -8 17 -20 17 -20 10 5 -7 20 -5 23 6 14 24 -18 48
-24 55 -12 5 7 2 8 -7 3 -8 -5 -11 -4 -6 1 5 5 12 9 15 9 4 0 13 4 21 9 9 6
12 5 8 0 -3 -6 -2 -16 4 -24 7 -12 9 -11 10 5 0 11 3 14 6 8 2 -7 9 -13 14
-13 6 0 7 6 4 13 -4 6 4 1 16 -13 15 -17 20 -19 16 -7 -4 9 -2 17 4 17 7 0 9
-11 7 -24 -3 -17 -1 -23 8 -19 15 5 34 -27 34 -57 0 -15 5 -20 14 -17 10 4 13
1 9 -8 -3 -8 -9 -12 -14 -9 -5 3 -9 0 -9 -5 0 -6 7 -12 15 -12 8 -1 20 -3 25
-4 6 -1 12 -3 15 -4 3 0 1 -11 -6 -23 -10 -18 -9 -20 5 -15 12 5 16 2 14 -10
-2 -9 3 -18 11 -21 9 -3 11 0 6 9 -5 8 -4 10 0 6 12 -10 15 -38 4 -32 -5 4 -6
-1 -3 -10 5 -13 9 -13 22 -3 14 11 14 10 5 -6 -12 -21 3 -45 29 -47 7 0 4 -4
-7 -9 -19 -8 -19 -9 3 -9 12 -1 22 -6 22 -12 0 -5 6 -7 13 -3 7 5 6 0 -3 -11
-9 -11 -10 -16 -2 -11 6 4 13 2 13 -3 5 -37 17 -51 37 -44 15 6 16 5 2 -12
-10 -12 -10 -16 -2 -11 14 8 42 -10 42 -27 0 -6 -7 -2 -16 9 -15 18 -15 18 -4
-3 5 -12 15 -25 22 -29 7 -4 8 -3 4 4 -4 7 -3 12 3 12 5 0 11 -12 13 -28 2
-22 8 -27 30 -26 15 1 25 -3 22 -8 -3 -4 -10 -6 -15 -3 -5 3 -6 -1 -3 -10 5
-11 10 -13 19 -5 9 7 15 7 19 1 4 -5 2 -12 -4 -16 -5 -3 -10 -12 -10 -18 0 -7
4 -6 10 3 6 10 10 11 10 3 0 -7 5 -13 11 -13 5 0 7 5 3 12 -4 7 -3 8 5 4 9 -6
9 -11 0 -22 -10 -12 -9 -13 4 -9 8 4 18 1 23 -6 5 -8 3 -10 -6 -4 -9 6 -11 4
-5 -4 4 -7 15 -11 25 -8 11 3 17 0 14 -7 -2 -6 0 -17 5 -25 7 -11 13 -12 24
-3 11 9 14 9 14 -3 0 -8 -4 -12 -9 -9 -4 3 -8 0 -8 -5 0 -6 4 -11 10 -11 14 0
56 -43 52 -54 -2 -5 4 -3 13 4 14 11 17 10 22 -8 3 -12 12 -22 19 -22 8 0 14
-5 14 -11 0 -5 4 -7 10 -4 6 4 7 -1 3 -12 -6 -16 -5 -16 10 -4 10 8 20 11 24
7 3 -3 1 -6 -5 -6 -7 0 -12 -5 -12 -11 0 -5 5 -7 10 -4 6 3 10 1 10 -5 0 -6 5
-8 12 -4 8 5 9 2 4 -11 -5 -15 -4 -16 8 -6 13 11 15 10 11 -6 -3 -19 4 -23 48
-24 15 0 16 -3 6 -15 -6 -8 -9 -17 -5 -21 3 -3 6 0 6 8 0 11 2 11 10 -1 6 -10
10 -11 10 -2 0 6 5 12 11 12 5 0 8 -3 6 -7 -2 -5 7 -19 21 -33 13 -14 22 -19
18 -12 -4 6 -2 12 3 12 6 0 11 -4 11 -10 0 -5 7 -10 16 -10 9 0 12 -5 8 -12
-5 -8 0 -7 11 2 11 9 16 10 11 3 -5 -9 0 -13 16 -13 16 0 19 -3 10 -9 -11 -7
-10 -9 3 -14 9 -4 13 -3 10 2 -3 5 -1 12 5 16 9 6 14 -8 11 -28 -1 -5 3 -6 9
-2 6 3 7 12 4 18 -4 7 -4 9 1 5 4 -4 15 -2 24 4 13 10 14 10 4 -2 -17 -18 -17
-38 -1 -22 16 16 52 16 42 -1 -6 -9 -5 -9 8 0 8 7 18 10 21 7 4 -4 5 2 2 14
-2 14 1 19 13 17 9 -2 21 -4 25 -4 5 -1 5 -6 1 -13 -4 -7 -3 -8 4 -4 6 4 8 14
5 23 -5 13 -1 15 20 11 22 -4 25 -3 17 12 -8 15 -6 17 11 13 15 -4 22 0 26 17
4 16 8 18 14 8 7 -10 9 -9 9 5 0 11 4 15 12 11 8 -5 9 -2 5 10 -5 12 0 19 18
26 14 5 25 14 25 20 0 6 -5 8 -12 4 -7 -4 -8 -3 -4 5 6 9 11 9 22 0 11 -9 14
-8 14 4 0 8 7 20 15 27 8 7 12 17 9 22 -4 6 3 5 14 -1 18 -10 20 -8 17 8 -2
11 4 26 13 33 12 10 14 10 8 1 -4 -8 -2 -13 5 -13 6 0 9 8 6 20 -3 11 0 23 5
27 7 3 8 1 4 -5 -4 -7 -1 -12 8 -12 8 0 18 5 22 12 4 7 3 8 -4 4 -7 -4 -12 -2
-12 5 0 6 8 9 19 6 15 -4 18 0 16 19 -2 19 1 22 11 14 14 -13 14 5 -1 30 -8
13 -7 13 9 1 14 -12 19 -12 29 -1 10 10 9 11 -3 5 -12 -7 -13 -6 -3 7 7 8 9
18 5 23 -4 4 4 2 18 -5 24 -13 24 -12 10 5 -14 17 -13 18 3 12 10 -4 16 -3 14
1 -8 13 12 52 25 47 8 -3 19 8 27 26 9 21 18 28 29 24 12 -4 11 -1 -4 16 l-19
22 23 -12 c22 -12 23 -11 13 7 -7 14 -7 19 4 19 8 0 12 -4 9 -8 -2 -4 0 -11 6
-14 6 -4 10 -3 9 2 -4 21 2 34 13 27 7 -4 8 -3 4 5 -4 6 -13 9 -19 5 -7 -3 0
5 16 18 15 13 27 31 27 41 0 20 16 23 23 5 3 -7 4 1 2 19 -3 26 0 31 13 26 15
-6 15 -5 3 10 -12 15 -12 17 4 11 13 -5 16 -4 11 4 -4 7 -3 12 3 12 6 0 8 7 5
15 -4 9 0 15 10 15 10 0 13 5 9 18 -6 15 -5 16 12 2 12 -10 16 -10 11 -2 -4 7
-2 20 6 29 7 9 12 18 11 20 -8 10 -2 43 8 43 5 0 7 -5 3 -12 -5 -7 -3 -8 5 -4
7 5 10 11 7 14 -3 3 0 12 6 20 14 16 20 45 9 37 -4 -2 -8 2 -8 10 0 8 4 12 9
9 4 -3 8 0 8 6 0 6 4 9 8 6 5 -3 9 1 9 8 0 8 -7 12 -16 10 -9 -3 -6 1 7 7 12
7 22 21 22 31 0 13 4 17 13 12 9 -6 9 -5 0 7 -8 10 -9 19 -1 29 8 12 9 11 4
-3 -4 -12 -2 -17 6 -14 7 2 12 9 11 14 -1 5 4 10 12 10 8 0 12 -4 9 -8 -2 -4
1 -11 7 -15 7 -4 9 -3 6 3 -4 6 3 19 14 29 11 10 20 14 19 9 -6 -27 0 -36 19
-26 10 6 22 7 26 3 5 -4 5 -2 1 5 -3 6 -2 14 4 18 5 3 10 2 10 -3 0 -6 7 -12
14 -15 11 -4 13 -1 8 11 -5 15 -3 15 22 -2 16 -10 25 -13 22 -7 -4 6 0 11 9
11 10 0 14 -5 10 -12 -4 -7 0 -5 8 5 18 22 28 22 21 0 -5 -17 -5 -17 6 0 6 9
8 23 4 30 -6 9 -4 9 8 -1 14 -11 16 -9 14 13 -1 25 -16 36 -16 13 -1 -7 -7 -2
-15 12 -10 18 -14 20 -15 8 0 -9 -5 -20 -12 -24 -6 -4 -8 -3 -5 3 4 6 0 13 -8
17 -10 3 -15 -1 -15 -11 0 -15 -2 -14 -14 2 -13 18 -13 18 -24 -1 -8 -14 -12
-15 -12 -4 0 13 -1 13 -10 0 -5 -8 -12 -11 -16 -7 -4 3 -3 12 2 20 5 7 1 4 -8
-6 -13 -13 -18 -15 -18 -6 -1 8 -7 3 -14 -10 l-14 -24 -8 24 c-4 13 -7 27 -6
32 1 4 -3 7 -9 7 -6 0 -8 -9 -4 -20 4 -12 2 -20 -5 -20 -6 0 -9 4 -5 9 3 5 0
13 -5 16 -8 5 -5 14 6 26 19 21 27 49 15 49 -4 0 -8 7 -8 15 0 13 4 12 21 -2
12 -10 15 -11 9 -3 -14 16 -18 44 -5 36 5 -3 9 1 9 9 0 8 -5 11 -10 8 -6 -3
-7 -1 -3 5 3 5 0 13 -6 16 -7 3 -2 3 10 0 21 -5 23 -4 13 15 -10 17 -9 21 4
21 9 0 13 5 10 10 -4 6 -11 7 -17 4 -7 -5 -8 -2 -4 5 5 7 15 10 24 6 13 -5 13
-3 -2 14 -13 14 -14 21 -5 27 7 4 10 3 6 -3 -3 -5 0 -10 8 -10 10 0 11 5 4 18
-12 24 -11 32 3 23 7 -4 8 -3 4 5 -4 6 -2 19 5 27 10 12 9 13 -7 7 -17 -6 -17
-5 -5 10 7 9 18 14 25 10 7 -4 6 -1 -1 9 -7 8 -9 19 -5 23 4 5 0 5 -8 0 -8 -5
-12 -5 -8 0 4 4 3 14 -3 22 -9 9 -8 13 0 13 6 0 11 -4 11 -10 0 -5 3 -10 8
-10 4 0 7 18 8 40 0 22 -3 40 -8 40 -4 0 -8 5 -8 11 0 6 7 9 14 6 11 -4 13 -1
9 11 -4 9 -11 20 -17 24 -7 5 -6 8 4 8 11 1 10 4 -5 17 -13 10 -15 14 -4 10 9
-3 22 -1 30 5 11 8 10 9 -3 4 -12 -3 -22 2 -29 17 -11 19 -10 20 3 10 12 -10
15 -10 15 2 0 8 -5 15 -10 15 -5 0 -3 8 4 17 12 14 12 16 0 8 -11 -6 -13 -3
-9 13 5 16 2 22 -10 22 -12 1 -10 5 8 16 23 14 23 14 3 9 -19 -5 -23 -2 -23
15 0 14 -4 19 -12 14 -9 -5 -9 -2 1 9 14 17 26 24 17 9 -2 -4 0 -14 5 -22 7
-12 8 -10 6 7 -2 11 -9 28 -16 37 -7 8 -9 21 -5 28 4 7 4 10 0 6 -11 -10 -34
14 -29 29 3 7 -2 15 -10 19 -9 3 -14 14 -12 25 2 11 0 17 -6 14 -5 -4 -9 1 -9
9 0 9 -5 16 -11 16 -5 0 -7 5 -4 10 9 14 -8 13 -23 -2 -9 -9 -11 -7 -8 9 4 19
-7 48 -15 42 -2 -2 -14 5 -26 16 -18 15 -20 22 -10 34 8 11 9 13 0 8 -6 -4
-18 0 -26 8 -12 11 -17 12 -20 2 -4 -9 -6 -9 -6 1 -1 7 -5 10 -11 7 -5 -3 -7
0 -4 8 7 20 -38 48 -57 35 -11 -7 -9 -8 6 -3 16 5 18 4 8 -6 -10 -10 -19 -7
-43 16 -32 31 -81 45 -57 17 10 -13 9 -14 -10 -3 -13 6 -23 9 -23 7 0 -3 -11
-1 -25 4 -15 6 -26 6 -30 -1 -4 -5 -11 -6 -17 -3 -6 4 -5 10 3 15 10 6 11 9 2
9 -7 0 -14 -3 -14 -7z m49 -38 c-3 -3 -9 2 -12 12 -6 14 -5 15 5 6 7 -7 10
-15 7 -18z m102 4 c0 -5 -4 -9 -8 -9 -5 0 -9 7 -9 15 0 8 4 12 9 9 4 -3 8 -9
8 -15z m-1096 -137 c3 -5 -1 -9 -9 -9 -8 0 -12 4 -9 9 3 4 7 8 9 8 2 0 6 -4 9
-8z m217 -109 c12 -16 12 -17 -2 -6 -9 7 -20 9 -24 5 -5 -4 -5 -1 -1 6 9 16
11 15 27 -5z m1194 -62 c3 -5 2 -12 -3 -15 -5 -3 -9 1 -9 9 0 17 3 19 12 6z
m-995 -5 c0 -2 -7 -7 -16 -10 -8 -3 -12 -2 -9 4 6 10 25 14 25 6z m1014 -24
c3 -5 -1 -9 -9 -9 -8 0 -12 4 -9 9 3 4 7 8 9 8 2 0 6 -4 9 -8z m34 -327 c-3
-3 -9 2 -12 12 -6 14 -5 15 5 6 7 -7 10 -15 7 -18z m-83 -395 c-3 -5 -11 -10
-16 -10 -6 0 -7 5 -4 10 3 6 11 10 16 10 6 0 7 -4 4 -10z m56 -113 c-10 -9
-11 -8 -5 6 3 10 9 15 12 12 3 -3 0 -11 -7 -18z m-2261 -61 c0 -3 -4 -8 -10
-11 -5 -3 -10 -1 -10 4 0 6 5 11 10 11 6 0 10 -2 10 -4z m-90 -40 c0 -3 -4 -8
-10 -11 -5 -3 -10 -1 -10 4 0 6 5 11 10 11 6 0 10 -2 10 -4z m2190 -70 c0 -2
-6 -9 -14 -15 -11 -9 -16 -9 -22 0 -4 8 -3 9 4 5 7 -4 12 -2 12 3 0 6 5 11 10
11 6 0 10 -2 10 -4z m-55 -96 c-3 -5 -12 -10 -18 -10 -7 0 -6 4 3 10 19 12 23
12 15 0z m-1628 -105 c0 -8 -4 -12 -9 -9 -5 3 -6 10 -3 15 9 13 12 11 12 -6z
m883 -695 c0 -5 -2 -10 -4 -10 -3 0 -8 5 -11 10 -3 6 -1 10 4 10 6 0 11 -4 11
-10z"/>
<path d="M1986 2468 c3 -5 10 -6 15 -3 13 9 11 12 -6 12 -8 0 -12 -4 -9 -9z"/>
<path d="M2091 2453 c-1 -17 16 -25 25 -12 4 7 3 9 -4 5 -5 -3 -13 0 -15 6 -4
9 -6 10 -6 1z"/>
<path d="M1786 2433 c-6 -14 -5 -15 5 -6 7 7 10 15 7 18 -3 3 -9 -2 -12 -12z"/>
<path d="M2258 2332 c9 -11 21 -17 25 -14 5 2 0 10 -10 18 -26 20 -36 17 -15
-4z"/>
<path d="M571 2274 c0 -11 3 -14 6 -6 3 7 2 16 -1 19 -3 4 -6 -2 -5 -13z"/>
<path d="M1221 2174 c0 -11 3 -14 6 -6 3 7 2 16 -1 19 -3 4 -6 -2 -5 -13z"/>
<path d="M315 2131 c-3 -5 -2 -12 3 -15 5 -3 9 1 9 9 0 17 -3 19 -12 6z"/>
<path d="M290 2080 c0 -5 5 -10 11 -10 5 0 7 5 4 10 -3 6 -8 10 -11 10 -2 0
-4 -4 -4 -10z"/>
<path d="M310 1286 c0 -2 8 -10 18 -17 15 -13 16 -12 3 4 -13 16 -21 21 -21
13z"/>
<path d="M395 1121 c-6 -11 13 -26 22 -17 4 3 1 6 -6 6 -7 0 -9 5 -6 10 3 6 4
10 1 10 -3 0 -7 -4 -11 -9z"/>
<path d="M459 1003 c-13 -16 -12 -17 4 -4 9 7 17 15 17 17 0 8 -8 3 -21 -13z"/>
<path d="M1943 635 c0 -8 4 -12 9 -9 5 3 6 10 3 15 -9 13 -12 11 -12 -6z"/>
<path d="M830 536 c0 -2 8 -10 18 -17 15 -13 16 -12 3 4 -13 16 -21 21 -21 13z"/>
<path d="M971 424 c0 -11 3 -14 6 -6 3 7 2 16 -1 19 -3 4 -6 -2 -5 -13z"/>
<path d="M1706 382 c-3 -5 1 -9 9 -9 8 0 15 4 15 9 0 4 -4 8 -9 8 -6 0 -12 -4
-15 -8z"/>
</g>
</svg>
